PathFileType	4	(X/Y/Z)	C:/Users/beibeiliu/ov580/test_trc/User2\sequence.35_training_dense_left.trc
DataRate	CameraRate	NumFrames	NumMarkers	Units	OrigDataRate	OrigDataStartFrame	OrigNumFrames
120	120	17	19	mm	120	217	289
Frame#	Time	ThumbCMC			ThumbMCP			ThumbIP			ThumbTip			IndexMCP			IndexPIP			IndexTip			MiddleMCP			MiddlePIP			MiddleTip			RingMCP			RingPIP			RingTip			PinkyMCP			PinkyPIP			PinkyTip			BackHand1			BackHand2			BackHand3	
		X0	Y0	Z0	X1	Y1	Z1	X2	Y2	Z2	X3	Y3	Z3	X4	Y4	Z4	X5	Y5	Z5	X6	Y6	Z6	X7	Y7	Z7	X8	Y8	Z8	X9	Y9	Z9	X10	Y10	Z10	X11	Y11	Z11	X12	Y12	Z12	X13	Y13	Z13	X14	Y14	Z14	X15	Y15	Z15	X16	Y16	Z16	X17	Y17	Z17	X18	Y18	Z18	
216	1.8	-208.44	-59.5989	74.7433	-205.867	-58.3064	38.1049	-191.114	-61.2202	8.78821	-165.085	-71.8319	-1.60555	-161.526	-100.931	11.9957	-132.028	-84.5678	1.86971	-134.737	-58.3027	23.2419	-145.822	-111.821	18.917	-116.479	-87.8319	10.82	-129.528	-65.2791	42.6544	-130.485	-119.436	37.211	-106.17	-98.8774	29.2197	-123.045	-72.8866	49.4867	-123.258	-121.242	57.1695	-101.545	-101.07	44.828	-113.314	-72.3807	60.7829	-173.262	-117.601	82.0119	-187.521	-110.53	110.666	-201.344	-97.368	76.0551	
217	1.80833	-211.905	-65.503	69.2031	-210.191	-64.9183	37.6453	-194.969	-66.8097	10.0876	-168.325	-75.3178	0.27418	-160.037	-102.74	10.6954	-134.915	-87.835	0.23989	-140.679	-57.3357	21.1482	-139.843	-113.59	17.1498	-117.79	-87.9265	10.204	-131.853	-63.2589	39.8679	-125.358	-118.039	35.0512	-105.02	-97.4046	28.5846	-125.886	-70.5457	48.5917	-120.697	-117.839	60.6126	-97.9547	-97.9242	45.8445	-114.623	-70.8831	61.4327	-169.699	-118.961	83.6372	-185.222	-109.798	112.99	-199.509	-101.352	77.6014	
218	1.81667	-212.422	-70.5294	70.3258	-214.336	-69.4656	39.892	-196.481	-75.097	9.41252	-168.828	-79.955	-1.00306	-159.995	-105.462	13.3203	-136.301	-88.3374	0.668528	-145.341	-57.9832	20.9675	-137.919	-115.365	19.6296	-117.603	-89.0791	11.6328	-136.356	-63.4799	39.6496	-124.626	-117.524	38.3676	-107.628	-91.729	25.7732	-123.906	-70.3978	47.2204	-117.408	-116.467	62.9498	-102.181	-92.5047	42.192	-116.986	-67.1891	58.9621	-166.382	-119.06	85.9461	-181.658	-113.366	114.032	-199.79	-105.47	81.1805	
219	1.825	-213.52	-74.33	72.5264	-217.811	-75.1846	39.7928	-197.059	-82.7465	7.90639	-171.529	-82.839	1.47342	-160.965	-108.22	14.0829	-136.703	-89.3442	1.04268	-151.023	-59.1678	22.602	-139.354	-114.68	22.1673	-117.497	-88.2521	12.448	-137.492	-63.8227	39.7587	-121.248	-115.399	35.1572	-109.81	-91.9113	24.751	-128.636	-68.1959	48.6497	-118.621	-113.231	59.4128	-99.7946	-91.9485	43.4762	-117.855	-68.1287	55.8887	-162.577	-118.476	86.8772	-182.04	-114.163	113.701	-196.43	-108.176	80.082	
220	1.83333	-217.127	-77.3398	73.5455	-219.803	-80.6443	41.1703	-203.328	-84.9399	8.82532	-171.54	-87.9996	4.22175	-160.024	-109.504	15.2823	-139.656	-87.1453	0.541119	-151.651	-60.4092	18.817	-142.091	-114.349	21.7337	-122.306	-85.0548	9.29186	-144.438	-62.6743	37.6125	-120.845	-115.054	35.1757	-108.328	-89.6239	27.0386	-129.701	-68.6033	46.926	-113.194	-114.019	58.103	-101.398	-90.1628	41.4466	-122.388	-66.3821	56.0955	-158.535	-119.54	88.1023	-179.989	-112.477	111.991	-197.755	-109.727	79.2142	
221	1.84167	-219.957	-80.1778	73.8523	-220.825	-85.3176	39.8726	-200.77	-90.1444	8.92863	-170.521	-90.6404	4.2897	-160.095	-110.893	17.0812	-140.7	-90.5475	0.627176	-154.774	-62.0482	20.3721	-141.288	-114.983	20.4046	-122.008	-83.6338	11.8596	-146.692	-63.228	39.4965	-124.441	-113.787	35.2861	-111.135	-87.1673	26.0088	-133.027	-67.8322	49.7633	-116.889	-111.576	56.8117	-102.89	-87.4353	41.2725	-121.371	-63.9296	58.1923	-160.087	-118.54	86.5879	-179.553	-113.887	119.599	-198.685	-111.55	78.8313	
222	1.85	-219.003	-82.4783	74.1211	-220.276	-88.1151	39.8533	-199.823	-93.1018	9.59896	-167.551	-91.9608	7.68762	-162.932	-112.075	16.5589	-143.441	-91.2562	-1.32467	-155.758	-62.25	17.2005	-142.222	-114.527	23.0895	-125.502	-81.3869	10.7433	-148.404	-63.0193	39.8826	-124.223	-112.82	34.2617	-111.684	-86.4562	25.1436	-132.445	-66.7488	48.6399	-118.309	-108.977	62.0803	-104.001	-83.2932	41.736	-123.899	-62.4642	59.3272	-158.324	-119.099	88.8658	-179.707	-112.351	116.498	-196.771	-111.434	84.6874	
223	1.85833	-221.22	-84.5936	73.6562	-223.093	-86.8646	43.1535	-200.664	-91.9506	15.3282	-170.968	-91.7618	5.62176	-161.578	-111.956	16.1129	-142.086	-90.5814	1.27028	-157.102	-62.0907	21.2668	-137.977	-112.737	23.955	-126.521	-82.1856	9.27059	-151.576	-60.708	37.212	-125.708	-111.599	35.7824	-114.749	-82.7119	25.2927	-135.727	-66.1998	45.4657	-117.206	-108.398	57.0244	-108.588	-83.136	39.7519	-126.621	-61.9646	58.6109	-161.505	-119.417	88.1302	-175.371	-115.26	117.84	-195.437	-111.699	84.3426	
224	1.86667	-219.231	-85.0881	73.8988	-218.451	-91.0611	43.1848	-204.749	-93.2788	10.3098	-173.613	-92.7181	2.64685	-161.222	-110.962	14.6159	-143.705	-85.9692	0.971626	-162.2	-61.3275	20.5429	-137.387	-110.93	21.5401	-126.205	-77.5034	11.8195	-153.873	-60.0385	36.0985	-125.33	-109.437	38.9091	-113.832	-79.9784	25.3863	-138.513	-65.0115	45.7583	-114.569	-106.958	58.7241	-105.929	-80.1318	40.5515	-129.938	-60.5267	58.4424	-158.504	-117.617	91.464	-177.551	-114.061	119.109	-197.318	-113.449	81.5673	
225	1.875	-221.627	-86.2885	73.6386	-223.968	-93.0804	42.3337	-206.594	-95.8834	15.6687	-175.96	-98.6646	-0.523739	-158.537	-109.691	13.339	-147.469	-83.0359	-0.830126	-159.448	-61.6241	22.7692	-142.203	-111.239	22.7589	-126.541	-78.4054	11.746	-152.4	-60.3644	36.2928	-121.349	-107.825	35.0888	-118.582	-79.8335	22.1544	-138.834	-64.6539	46.3255	-117.295	-104.122	56.0496	-109.06	-78.4384	40.1392	-130.651	-59.0419	59.1057	-159.24	-117.892	90.9983	-178.066	-110.354	119.463	-196.927	-112.473	82.7201	
226	1.88333	-221.432	-87.6763	73.0168	-219.458	-93.6256	44.8725	-209.166	-102.267	9.67375	-184.006	-104.395	-5.94994	-161.982	-109.733	14.8277	-147.234	-83.8754	-0.125217	-163.104	-61.5436	21.6778	-141.237	-110.551	20.8837	-130.12	-76.0147	10.9628	-155.832	-61.8168	37.1959	-125.194	-107.381	33.1453	-116.88	-79.6485	24.6656	-143.439	-66.1972	47.6026	-114.216	-104.441	56.6988	-108.239	-76.2196	41.09	-131.976	-61.5224	55.6445	-155.298	-118.134	89.6377	-178.344	-112.777	116.08	-196.256	-113.541	85.5587	
227	1.89167	-219.319	-86.9617	76.1843	-220.008	-95.7296	46.9859	-210.571	-103.669	14.3431	-195.125	-108.226	-8.39516	-163.197	-111.356	15.7353	-148.963	-87.6711	-2.86529	-167.063	-63.9183	21.4407	-142.792	-110.733	19.5985	-132.909	-75.9556	8.45352	-157.448	-61.3935	36.6767	-121.388	-107.859	33.7336	-119.162	-78.6709	21.8092	-143.296	-65.3836	47.791	-118.229	-103.377	58.4884	-107.854	-79.2105	39.6394	-129.228	-57.8297	55.732	-159.034	-120.127	86.7711	-175.762	-111.833	117.316	-198.206	-116.604	81.6401	
228	1.9	-220.668	-89.1639	76.6507	-222.056	-95.7057	49.2068	-214.805	-105.213	15.9317	-208.94	-112.459	-11.4455	-160.218	-112.158	14.4233	-148.633	-89.1242	-1.60024	-169.431	-64.5273	20.0521	-141.427	-111.449	19.6558	-132.436	-78.0713	9.75116	-155.167	-63.8096	37.0852	-123.055	-109.136	38.601	-119.791	-81.147	20.5115	-141.365	-64.9778	41.2864	-115.724	-103.637	59.3915	-109.847	-75.645	37.7968	-134.598	-62.7383	54.4271	-156.706	-119.047	89.922	-176.634	-113.861	117.178	-198.358	-115.944	84.5607	
229	1.90833	-219.537	-90.1807	76.9172	-223.961	-96.6688	49.494	-218.766	-107.433	16.7684	-213.773	-116.445	-11.4026	-166.167	-114.665	13.6653	-151.207	-90.0437	-2.90479	-167.088	-66.7265	18.4506	-145.398	-113.755	21.7516	-135.324	-78.2352	7.85385	-155.38	-64.939	37.213	-123.47	-111.13	35.1173	-117.651	-82.4813	22.3117	-142.664	-66.9562	46.1142	-115.238	-105.331	55.1804	-109.108	-81.9679	37.3898	-132.534	-60.1449	54.0718	-159.414	-118.032	89.4121	-174.788	-113.951	119.587	-193.723	-117.934	83.9693	
230	1.91667	-222.041	-90.8649	76.9794	-221.666	-100.682	47.6847	-220.754	-110.309	16.2362	-216.944	-117.762	-9.68599	-166.71	-115.747	15.7553	-151.338	-89.4661	-1.26653	-168.472	-66.7748	21.9687	-141.447	-115.052	23.8869	-135.04	-81.3859	7.30174	-161.217	-66.5275	36.8398	-128.331	-111.606	33.6744	-116.536	-85.582	21.8713	-143.955	-67.7807	40.2742	-116.603	-106.169	58.6296	-112.655	-79.5867	36.3677	-134.766	-62.4256	54.8382	-158.502	-121.231	88.2577	-178.271	-114.368	114.289	-196.293	-118.804	85.1982	
231	1.925	-220.721	-92.1796	75.6465	-226.557	-101.985	46.1735	-222.086	-111.612	15.5844	-220.723	-116.491	-9.35795	-167.839	-114.838	12.6354	-153.763	-90.7779	-2.5035	-170.057	-67.1957	25.8057	-146.386	-114.592	18.5307	-137.732	-80.6272	8.29867	-161.604	-66.429	37.2145	-127.772	-111.863	33.5071	-118.415	-84.8898	23.2016	-144.748	-69.3207	43.3669	-122.162	-106.058	58.3841	-113.815	-82.3685	37.1167	-132.951	-62.5091	51.4936	-161.698	-121.85	88.3612	-178.658	-116.102	116.258	-198.292	-118.593	84.5054	
232	1.93333	-222.926	-92.3047	75.368	-222.605	-100.328	47.8056	-222.846	-110.57	15.6111	-217.748	-114.132	-7.83767	-166.741	-114.593	12.6916	-155.399	-89.7882	-3.24783	-170.837	-67.4975	19.8281	-143.597	-114.578	19.9523	-137.748	-81.1985	7.27032	-158.121	-65.1627	34.8993	-125.002	-110.991	34.3856	-122.754	-84.9738	21.0952	-146.809	-69.475	44.8689	-121.266	-106.54	54.6342	-113.643	-79.3789	38.2372	-138.052	-62.7383	55.6303	-164.699	-119.651	90.2509	-179.21	-114.972	117.224	-201.474	-117.992	86.8579	
